<?xml version="1.0" encoding="UTF-8" standalone="no"?>
<!-- Created with Inkscape (http://www.inkscape.org/) -->

<svg
   xmlns:dc="http://purl.org/dc/elements/1.1/"
   xmlns:cc="http://creativecommons.org/ns#"
   xmlns:rdf="http://www.w3.org/1999/02/22-rdf-syntax-ns#"
   xmlns:svg="http://www.w3.org/2000/svg"
   xmlns="http://www.w3.org/2000/svg"
   xmlns:sodipodi="http://sodipodi.sourceforge.net/DTD/sodipodi-0.dtd"
   xmlns:inkscape="http://www.inkscape.org/namespaces/inkscape"
   width="500"
   height="511"
   viewBox="0 0 500.00001 511.00002"
   id="svg2"
   version="1.1"
   inkscape:version="0.91 r13725"
   sodipodi:docname="Anchor_Black.svg">
  <defs
     id="defs4">
    <pattern
       y="0"
       x="0"
       height="6"
       width="6"
       patternUnits="userSpaceOnUse"
       id="EMFhbasepattern" />
  </defs>
  <sodipodi:namedview
     id="base"
     pagecolor="#ffffff"
     bordercolor="#666666"
     borderopacity="1.0"
     inkscape:pageopacity="0.0"
     inkscape:pageshadow="2"
     inkscape:zoom="0.49497475"
     inkscape:cx="392.91092"
     inkscape:cy="300.06412"
     inkscape:document-units="px"
     inkscape:current-layer="layer1"
     showgrid="false"
     units="px"
     inkscape:window-width="1536"
     inkscape:window-height="801"
     inkscape:window-x="-8"
     inkscape:window-y="-8"
     inkscape:window-maximized="1" />
  <metadata
     id="metadata7">
    <rdf:RDF>
      <cc:Work
         rdf:about="">
        <dc:format>image/svg+xml</dc:format>
        <dc:type
           rdf:resource="http://purl.org/dc/dcmitype/StillImage" />
        <dc:title></dc:title>
      </cc:Work>
    </rdf:RDF>
  </metadata>
  <g
     inkscape:label="Layer 1"
     inkscape:groupmode="layer"
     id="layer1"
     transform="translate(0,-541.36216)">
    <path
       inkscape:connector-curvature="0"
       id="path4169"
       d="m 222.46714,1051.5767 c -52.83622,-5.0023 -106.2279,-24.4572 -147.38477,-53.91419 -3.89276,-2.778 -7.22979,-5.0023 -7.22979,-5.0023 0,0.5516 -1.66852,3.8917 -3.89329,8.33719 l -3.89303,7.7803 L 30.033,963.76011 C 13.34812,938.74891 -5.3644181e-7,918.18321 -5.3644181e-7,917.62641 c 0,0 1.11145993644181,-0.5514 2.22555993644181,-0.5514 1.11147,0 24.4712006,-1.1028 52.2796906,-2.7781 27.80823,-1.6544 51.72369,-3.3349 52.27969,-3.3349 l 1.66852,0 -7.78632,16.1175 -7.78632,15.5635 6.67407,3.8915 c 27.25222,15.5608 58.95348,27.2327 89.54274,33.9025 7.23033,1.1027 22.80321,3.8914 24.47173,3.8914 0.55705,0 0.55705,-20.0089 0.55705,-98.3776 l 0,-98.3778 -35.59481,0 -35.59429,0 -24.47171,-22.2304 -23.9152,-22.7899 60.06573,0 59.51028,0 0,-44.4637 0,-44.4636 -1.66852,-1.1028 c -2.78078,-1.6543 -10.01108,-8.8938 -12.79186,-13.3394 -3.89329,-5.5589 -8.34257,-14.45 -10.01109,-20.5657 -1.11146,-5.0022 -1.11146,-6.6696 -1.11146,-16.11751 0,-10.0045 0,-11.1152 1.66851,-16.11751 5.56154,-18.3416 16.68514,-32.2376 33.92629,-40.01801 8.89883,-3.89149 12.79212,-5.0023 25.58398,-5.0023 9.45404,0 11.67882,0 16.1281,1.10295 21.69069,6.113 37.26359,21.6764 43.93764,43.9095 1.66852,5.0023 1.66852,6.113 1.66852,16.11751 0,9.44791 0,11.1153 -1.11146,16.11751 -3.33704,12.22859 -10.56708,23.90056 -20.57818,32.23776 l -3.89329,3.3348 0,43.9068 0,44.4664 59.51028,0 60.06574,0 -23.91521,22.7872 -24.47171,22.2331 -35.59403,0 -35.59507,0 0,98.3751 c 0,78.3687 0,98.3776 0.55704,98.3776 1.66853,0 17.24115,-2.7781 23.35921,-3.8914 30.58926,-6.113 65.0713,-18.8957 91.21127,-33.9025 l 6.11806,-3.8915 -7.78657,-15.5635 -8.34258,-16.1175 2.22556,0 c 1.11146,0 25.02773,1.6542 52.83647,3.3349 27.80771,1.6542 51.16691,2.7781 52.27943,2.7781 1.11147,0 1.66852,0.5514 1.66852,0.5514 0,0.5515 -13.34812,21.1225 -30.03326,46.1337 l -30.03275,45.01759 -3.89301,-7.7803 c -2.22557,-4.44549 -3.89329,-7.78039 -3.89329,-8.33719 0,0 -3.33703,2.2322 -7.23033,5.0023 -36.70733,26.12209 -84.53721,45.02039 -131.25562,51.69009 -19.46591,2.7781 -51.72316,3.8915 -71.18933,2.2319 z"
       style="fill:#000000;fill-opacity:1;fill-rule:nonzero;stroke:none" />
  </g>
</svg>
