<?xml version="1.0" encoding="UTF-8" standalone="no"?>
<!-- Created with Inkscape (http://www.inkscape.org/) -->

<svg
   xmlns:dc="http://purl.org/dc/elements/1.1/"
   xmlns:cc="http://creativecommons.org/ns#"
   xmlns:rdf="http://www.w3.org/1999/02/22-rdf-syntax-ns#"
   xmlns:svg="http://www.w3.org/2000/svg"
   xmlns="http://www.w3.org/2000/svg"
   xmlns:sodipodi="http://sodipodi.sourceforge.net/DTD/sodipodi-0.dtd"
   xmlns:inkscape="http://www.inkscape.org/namespaces/inkscape"
   width="500"
   height="500"
   viewBox="0 0 500.00001 500.00001"
   id="svg2"
   version="1.1"
   inkscape:version="0.91 r13725"
   sodipodi:docname="LifeSaver_White.svg">
  <defs
     id="defs4" />
  <sodipodi:namedview
     id="base"
     pagecolor="#ffffff"
     bordercolor="#666666"
     borderopacity="1.0"
     inkscape:pageopacity="0.0"
     inkscape:pageshadow="2"
     inkscape:zoom="0.35"
     inkscape:cx="-112.14286"
     inkscape:cy="62.857143"
     inkscape:document-units="px"
     inkscape:current-layer="layer1"
     showgrid="false"
     units="px"
     inkscape:window-width="1536"
     inkscape:window-height="801"
     inkscape:window-x="-8"
     inkscape:window-y="-8"
     inkscape:window-maximized="1" />
  <metadata
     id="metadata7">
    <rdf:RDF>
      <cc:Work
         rdf:about="">
        <dc:format>image/svg+xml</dc:format>
        <dc:type
           rdf:resource="http://purl.org/dc/dcmitype/StillImage" />
        <dc:title></dc:title>
      </cc:Work>
    </rdf:RDF>
  </metadata>
  <g
     inkscape:label="Layer 1"
     inkscape:groupmode="layer"
     id="layer1"
     transform="translate(0,-552.36216)">
    <path
       style="fill:#ffffff"
       d="m 237.67452,1051.747 c -8.42939,-1.4746 -17.57029,-5.0251 -25.71608,-9.9883 -6.39593,-3.897 -11.91954,-8.0866 -25.47844,-19.3255 -17.57564,-14.5683 -18.7475,-15.3868 -28.47674,-19.8926 -9.42505,-4.36471 -19.32827,-9.78467 -27.12778,-14.84659 l -5.08392,-3.29944 28.46864,-28.4614 28.46839,-28.46141 5.00179,2.46515 c 33.67647,16.59815 73.48701,18.95866 109.05672,6.46642 6.09104,-2.13919 15.73107,-6.27257 18.69747,-8.01673 l 1.71362,-1.00776 28.39201,28.3923 c 15.61572,15.61575 28.28719,28.56217 28.15895,28.76985 -0.45842,0.74183 -12.0848,7.87295 -18.88651,11.58423 -3.80757,2.07773 -9.54715,4.95908 -12.75395,6.40298 -5.64834,2.5433 -6.22137,2.9559 -18.33492,13.2023 -6.87684,5.8173 -14.58888,12.2142 -17.13736,14.2152 -13.86223,10.8854 -27.68152,17.9995 -41.06639,21.1409 -5.73034,1.345 -21.80697,1.7256 -27.8955,0.6604 z m 22.63855,-10.0198 c 8.98695,-1.5643 19.98757,-6.1272 29.19988,-12.1114 4.41494,-2.868 14.27676,-10.2895 17.75577,-13.3622 1.74543,-1.5415 1.82996,-1.7065 0.66307,-1.2928 -3.01238,1.0677 -17.81393,4.1136 -25.47728,5.2429 -12.72604,1.8753 -22.99602,2.4599 -37.66858,2.1446 -16.651,-0.3582 -30.51552,-2.0509 -45.24363,-5.5243 -2.78293,-0.6563 -5.05981,-1.1532 -5.05981,-1.1043 0,0.049 2.69876,2.2974 5.99744,4.9965 15.64187,12.8 25.71316,18.3432 37.76657,20.7872 5.77645,1.1712 16.02636,1.2752 22.06657,0.2239 z M 64.722859,921.53332 c -5.06114,-7.80043 -10.48051,-17.70507 -14.84484,-27.13118 -4.50499,-9.73054 -5.32332,-10.90235 -19.88986,-28.48026 -17.97616,-21.69234 -22.9365399,-29.45211 -27.0634499,-42.3369 -2.46338993,-7.69143 -3.16589993,-13.51063 -2.85606993,-23.66045 0.38599,-12.63887 2.22197993,-19.8466 8.09931993,-31.79606 5.6187199,-11.42433 10.6782799,-18.43593 28.5162999,-39.51762 10.25438,-12.11905 10.66261,-12.68575 13.20637,-18.3369 1.44368,-3.20732 4.32466,-8.94738 6.40223,-12.75568 3.71061,-6.80245 10.84102,-18.43012 11.58268,-18.88863 0.20732,-0.12848 13.15253,12.54467 28.76627,28.16226 l 28.388771,28.39552 -1.00759,1.71391 c -0.5542,0.94271 -2.12166,4.21766 -3.48319,7.27768 -13.11478,29.4749 -15.96946,61.07162 -8.32787,92.17907 2.53877,10.33438 7.87764,24.61218 11.59324,31.00464 l 1.27379,2.19118 -28.528691,28.53198 -28.52829,28.53189 -3.29912,-5.08445 z m -29.63796,-70.9933 c -5.60841,-24.95435 -6.70333,-52.61279 -3.12385,-78.91004 1.00219,-7.3626 3.75319,-21.1664 5.18986,-26.04236 l 0.72793,-2.47033 -1.73934,2.00092 c -6.94542,7.98976 -14.78009,19.36926 -18.66445,27.10919 -5.18045,10.32253 -7.5515899,19.88848 -7.5515899,30.46416 0,16.82871 5.5930999,29.52078 21.6001599,49.01544 2.80521,3.41628 5.12711,6.21132 5.15993,6.21132 0.0348,0 -0.6865,-3.32023 -1.59865,-7.3783 z m 368.273671,47.45544 -28.3884,-28.39553 1.00761,-1.71396 c 0.55405,-0.94272 2.12132,-4.21765 3.48297,-7.27765 16.66908,-37.46233 16.66908,-78.967 0,-116.42931 -1.36165,-3.06002 -2.92892,-6.33497 -3.48297,-7.27768 l -1.00761,-1.71391 28.3884,-28.39552 c 15.61426,-15.61759 28.55898,-28.29055 28.76678,-28.16226 0.74166,0.45851 7.87186,12.08618 11.58283,18.88863 2.07752,3.8083 4.95875,9.54836 6.40216,12.75568 2.54374,5.65122 2.95179,6.21766 13.20654,18.3369 17.59761,20.79701 22.46074,27.50671 28.27794,39.01737 5.92743,11.72633 7.94802,19.55526 8.33734,32.29631 0.30756,10.18882 -0.392,15.9679 -2.89364,23.77732 -4.10151,12.80682 -9.02473,20.49796 -27.02578,42.22003 -14.42147,17.40284 -15.48724,18.91467 -19.45419,27.59699 -1.9106,4.18172 -5.08504,10.5442 -7.05428,14.13882 -3.58347,6.54174 -10.66865,18.06078 -11.37892,18.49996 -0.20682,0.12849 -13.15252,-12.54462 -28.76678,-28.16219 z m 64.9375,-46.0751 c 16.28268,-19.9029 21.78161,-32.33107 21.78161,-49.2288 0,-16.73204 -5.89142,-31.36293 -20.0608,-49.81991 -2.42865,-3.1639 -5.19916,-6.65295 -6.15568,-7.75344 l -1.73881,-2.00092 0.72731,2.47033 c 2.63741,8.94918 5.72571,27.34118 6.71654,39.99618 0.65479,8.3661 0.64578,25.29803 -0.0341,33.84247 -0.72511,9.33142 -2.66394,22.35358 -4.63245,31.11375 -0.91223,4.05807 -1.62883,7.3783 -1.59281,7.3783 0.0414,0 2.27413,-2.69911 4.97286,-5.99796 z M 154.25932,648.865 l -28.46637,-28.47314 5.08319,-3.29897 c 7.80362,-5.06473 17.70406,-10.48243 27.148,-14.85591 9.68476,-4.48507 11.20942,-5.55474 29.20628,-20.4901 20.86998,-17.32012 28.77281,-22.35601 41.4643,-26.42203 7.8084,-2.50158 13.58667,-3.2049 23.77424,-2.89373 12.73948,0.38911 20.56738,2.4103 32.29226,8.33808 11.50956,5.81873 18.21836,10.68223 39.01255,28.28178 12.11793,10.25593 12.68463,10.66392 18.33492,13.20817 3.2068,1.44391 8.94638,4.32522 12.75395,6.40295 6.80171,3.71126 18.42809,10.84246 18.88651,11.58423 0.12897,0.20759 -12.54323,13.15409 -28.15895,28.76989 l -28.39201,28.39224 -1.71362,-1.00501 c -3.83473,-2.24896 -13.68607,-6.35502 -21.22026,-8.845 -29.7413,-9.82911 -61.85372,-9.50082 -91.32751,0.93374 -6.55181,2.31963 -18.78612,7.66376 -19.24537,8.40666 -0.14843,0.24141 -0.42777,0.43923 -0.61878,0.43923 -0.19126,0 -13.15686,-12.81289 -28.81333,-28.47308 z m 153.0094,-60.35068 c -3.59904,-3.14365 -13.41354,-10.52195 -17.75577,-13.34813 -22.64982,-14.74241 -45.94969,-16.93449 -67.13043,-6.31571 -6.5656,3.29165 -13.13006,8.00612 -26.82786,19.26727 -1.26298,1.03818 -1.12144,1.02855 4.78127,-0.32498 15.32618,-3.51462 27.71371,-4.99884 44.66269,-5.35124 14.25172,-0.29624 23.78593,0.20978 36.01175,1.91164 7.89969,1.09973 19.36258,3.38444 24.50786,4.88489 1.78804,0.52139 3.36336,0.96508 3.50098,0.98594 0.1387,0.0195 -0.65021,-0.74847 -1.75049,-1.70958 z"
       id="path4680"
       inkscape:connector-curvature="0" />
  </g>
</svg>
