<?xml version="1.0" encoding="UTF-8" standalone="no"?>
<!-- Created with Inkscape (http://www.inkscape.org/) -->

<svg
   xmlns:dc="http://purl.org/dc/elements/1.1/"
   xmlns:cc="http://creativecommons.org/ns#"
   xmlns:rdf="http://www.w3.org/1999/02/22-rdf-syntax-ns#"
   xmlns:svg="http://www.w3.org/2000/svg"
   xmlns="http://www.w3.org/2000/svg"
   xmlns:sodipodi="http://sodipodi.sourceforge.net/DTD/sodipodi-0.dtd"
   xmlns:inkscape="http://www.inkscape.org/namespaces/inkscape"
   width="500"
   height="500"
   viewBox="0 0 500.00001 500.00001"
   id="svg2"
   version="1.1"
   inkscape:version="0.91 r13725"
   sodipodi:docname="LifeSaver_Black.svg">
  <defs
     id="defs4" />
  <sodipodi:namedview
     id="base"
     pagecolor="#ffffff"
     bordercolor="#666666"
     borderopacity="1.0"
     inkscape:pageopacity="0.0"
     inkscape:pageshadow="2"
     inkscape:zoom="0.35"
     inkscape:cx="-112.14286"
     inkscape:cy="62.857143"
     inkscape:document-units="px"
     inkscape:current-layer="layer1"
     showgrid="false"
     units="px"
     inkscape:window-width="1536"
     inkscape:window-height="801"
     inkscape:window-x="-8"
     inkscape:window-y="-8"
     inkscape:window-maximized="1" />
  <metadata
     id="metadata7">
    <rdf:RDF>
      <cc:Work
         rdf:about="">
        <dc:format>image/svg+xml</dc:format>
        <dc:type
           rdf:resource="http://purl.org/dc/dcmitype/StillImage" />
        <dc:title></dc:title>
      </cc:Work>
    </rdf:RDF>
  </metadata>
  <g
     inkscape:label="Layer 1"
     inkscape:groupmode="layer"
     id="layer1"
     transform="translate(0,-552.36216)">
    <path
       style="fill:#000000"
       d="m 237.67457,1051.7474 c -8.42939,-1.475 -17.57001,-5.0255 -25.71586,-9.9884 -6.39565,-3.8974 -11.9196,-8.0871 -25.47856,-19.3261 -17.57545,-14.5679 -18.74769,-15.3866 -28.47647,-19.8926 -9.42484,-4.36455 -19.32837,-9.78445 -27.12812,-14.84665 l -5.08401,-3.2996 28.46899,-28.4604 28.46831,-28.4618 5.00174,2.4652 c 33.67676,16.5984 73.48738,18.9589 109.05712,6.4665 6.09103,-2.1394 15.73073,-6.2727 18.69737,-8.017 l 1.71349,-1.0078 28.39215,28.3924 c 15.61583,15.6158 28.28745,28.5617 28.15894,28.7698 -0.45557,0.7419 -12.08483,7.8728 -18.8864,11.5838 -3.80775,2.0782 -9.54724,4.95955 -12.7539,6.40335 -5.64838,2.5433 -6.22158,2.9561 -18.33496,13.2023 -6.87705,5.8171 -14.58909,12.2142 -17.13756,14.2156 -13.86222,10.8854 -27.68159,17.9993 -41.06648,21.1411 -5.72998,1.3444 -21.80681,1.7253 -27.89579,0.6596 z m 22.63906,-10.0204 c 8.98695,-1.5641 19.98725,-6.1272 29.19993,-12.1115 4.41494,-2.8678 14.27632,-10.2891 17.75564,-13.3622 1.74544,-1.5416 1.82976,-1.7062 0.66635,-1.2927 -3.01219,1.0676 -17.81411,4.1136 -25.47719,5.2431 -12.72601,1.8749 -22.99603,2.4597 -37.66876,2.1442 -16.65071,-0.3605 -30.51565,-2.0504 -45.24345,-5.524 -2.78305,-0.6528 -5.06022,-1.1534 -5.06022,-1.1044 0,0.068 2.69874,2.2972 5.99787,4.9963 15.64167,12.8004 25.71314,18.3434 37.76669,20.7875 5.7762,1.1717 16.02651,1.275 22.06654,0.2244 z M 64.722835,921.53305 c -5.0609,-7.8 -10.48013,-17.70483 -14.84475,-27.13088 -4.5047,-9.73071 -5.32336,-10.90242 -19.89002,-28.48081 C 12.012125,844.23009 7.0518651,836.47014 2.9245451,823.58541 0.46106507,815.89346 -0.24132493,810.07435 0.06873507,799.92473 0.45630507,787.28549 2.2908251,780.07774 8.1683451,768.12805 13.786805,756.70404 18.846345,749.69214 36.684255,728.61018 c 10.25438,-12.11901 10.66304,-12.68548 13.20674,-18.33594 1.44355,-3.20776 4.32451,-8.94731 6.40177,-12.75622 3.71119,-6.80245 10.84119,-18.42979 11.58302,-18.88814 0.20398,-0.12921 13.15234,12.54472 28.76613,28.16186 l 28.388765,28.39512 -1.00769,1.71439 c -0.55757,0.94253 -2.12146,4.21761 -3.48273,7.27711 -13.11495,29.47503 -15.97008,61.07246 -8.32807,92.17958 2.53894,10.33458 7.87794,24.61205 11.59321,31.00443 l 1.27355,2.19109 -28.528825,28.53249 -28.52815,28.5318 -3.29914,-5.0847 z m -29.63783,-70.99354 c -5.60826,-24.95342 -6.70367,-52.61206 -3.12371,-78.90993 1.00225,-7.36212 3.75334,-21.16628 5.18941,-26.04217 l 0.72823,-2.47059 -1.73932,2.00136 c -6.94573,7.9898 -14.78016,19.36893 -18.66474,27.10916 -5.18057,10.32234 -7.5515699,19.88848 -7.5515699,30.46448 0,16.8283 5.5932999,29.52059 21.6007799,49.01465 2.80481,3.41652 5.12685,6.21149 5.15949,6.21149 0,0 -0.68675,-3.31996 -1.59857,-7.37845 z m 368.273925,47.45599 -28.38808,-28.39579 1.00769,-1.71439 c 0.55077,-0.94253 2.12078,-4.21761 3.48273,-7.27712 16.66907,-37.4621 16.66907,-78.96705 0,-116.42984 -1.36195,-3.0595 -2.92924,-6.33458 -3.48273,-7.27711 l -1.00769,-1.71439 28.38808,-28.39512 c 15.61446,-15.61714 28.55942,-28.29039 28.76681,-28.16186 0.74183,0.45563 7.87183,12.08569 11.58302,18.88814 2.07725,3.80891 4.9589,9.54846 6.40244,12.75622 2.54371,5.65046 2.95168,6.21693 13.20607,18.33594 17.59788,20.79702 22.46092,27.50699 28.27792,39.01804 5.92784,11.72595 7.94866,19.55526 8.3376,32.29651 0.30598,10.18838 -0.39438,15.96805 -2.89389,23.77696 -4.10148,12.80722 -9.02435,20.49848 -27.02545,42.21967 -14.42182,17.40294 -15.48731,18.91467 -19.45416,27.59743 -1.91067,4.18158 -5.08537,10.54404 -7.05452,14.13876 -3.58336,6.542 -10.66848,18.0612 -11.37903,18.4998 -0.20399,0.1292 -13.15235,-12.544 -28.76681,-28.16185 z M 468.29657,851.92 c 16.28286,-19.90208 21.78164,-32.33052 21.78164,-49.22818 0,-16.73241 -5.89112,-31.36349 -20.06068,-49.82049 -2.42879,-3.16423 -5.19892,-6.65284 -6.15562,-7.75315 l -1.73864,-2.00136 0.72687,2.47059 c 2.63754,8.94934 5.72589,27.34105 6.71658,39.99594 0.65276,8.36654 0.64596,25.29821 0,33.84292 -0.72483,9.33153 -2.66406,22.35364 -4.63252,31.11324 -0.91182,4.05849 -1.62849,7.37845 -1.59245,7.37845 0.068,0 2.27376,-2.69908 4.9725,-5.99796 z m -314.03671,-203.05552 -28.46695,-28.47332 5.08333,-3.29888 c 7.80383,-5.06494 17.70396,-10.48215 27.14852,-14.85618 9.68459,-4.48487 11.20904,-5.55457 29.20606,-20.48963 20.86983,-17.31997 28.77293,-22.35568 41.46427,-26.42164 7.80859,-2.50187 13.58684,-3.20504 23.77391,-2.89358 12.73962,0.38763 20.56793,2.41007 32.29236,8.33799 11.50958,5.81843 18.21869,10.68208 39.01304,28.28087 12.11746,10.25638 12.68454,10.6644 18.33496,13.20844 3.20666,1.44372 8.94615,4.32506 12.7539,6.40326 6.80157,3.71099 18.42811,10.84258 18.8864,11.58382 0.12919,0.21082 -12.54311,13.15472 -28.15894,28.7705 l -28.39215,28.3924 -1.71349,-1.0051 c -3.83494,-2.2489 -13.68611,-6.35499 -21.22,-8.8453 -29.74185,-9.82931 -61.85404,-9.50085 -91.328,0.9337 -6.55136,2.31962 -18.78645,7.66406 -19.24542,8.40667 -0.14959,0.23801 -0.42837,0.44202 -0.61876,0.44202 -0.19038,0 -13.1571,-12.81265 -28.81304,-28.47332 z M 307.2692,588.51355 c -3.599,-3.14383 -13.41345,-10.52159 -17.75564,-13.34784 -22.64993,-14.74193 -45.94991,-16.93439 -67.13048,-6.31554 -6.56563,3.29207 -13.13059,8.00544 -26.82826,19.26692 -1.26268,1.03842 -1.12125,1.0289 4.78143,-0.32642 15.32617,-3.51445 27.71357,-4.99898 44.66278,-5.35124 14.25183,-0.29922 23.78615,0.21081 36.01172,1.91159 7.89969,1.09963 19.36304,3.38457 24.50825,4.88474 1.7876,0.52363 3.36305,0.96566 3.5004,0.98606 0.13599,0 -0.65275,-0.74805 -1.7502,-1.70963 z"
       id="path4680-8"
       inkscape:connector-curvature="0" />
  </g>
</svg>
