<?xml version="1.0" encoding="UTF-8" standalone="no"?>
<!-- Created with Inkscape (http://www.inkscape.org/) -->

<svg
   xmlns:dc="http://purl.org/dc/elements/1.1/"
   xmlns:cc="http://creativecommons.org/ns#"
   xmlns:rdf="http://www.w3.org/1999/02/22-rdf-syntax-ns#"
   xmlns:svg="http://www.w3.org/2000/svg"
   xmlns="http://www.w3.org/2000/svg"
   xmlns:sodipodi="http://sodipodi.sourceforge.net/DTD/sodipodi-0.dtd"
   xmlns:inkscape="http://www.inkscape.org/namespaces/inkscape"
   width="500"
   height="594"
   viewBox="0 0 500.00001 594.00002"
   id="svg2"
   version="1.1"
   inkscape:version="0.91 r13725"
   sodipodi:docname="X_Mark.svg">
  <defs
     id="defs4" />
  <sodipodi:namedview
     id="base"
     pagecolor="#ffffff"
     bordercolor="#666666"
     borderopacity="1.0"
     inkscape:pageopacity="0.0"
     inkscape:pageshadow="2"
     inkscape:zoom="0.35"
     inkscape:cx="-112.14286"
     inkscape:cy="62.857143"
     inkscape:document-units="px"
     inkscape:current-layer="layer1"
     showgrid="false"
     units="px"
     inkscape:window-width="1536"
     inkscape:window-height="801"
     inkscape:window-x="-8"
     inkscape:window-y="-8"
     inkscape:window-maximized="1" />
  <metadata
     id="metadata7">
    <rdf:RDF>
      <cc:Work
         rdf:about="">
        <dc:format>image/svg+xml</dc:format>
        <dc:type
           rdf:resource="http://purl.org/dc/dcmitype/StillImage" />
        <dc:title></dc:title>
      </cc:Work>
    </rdf:RDF>
  </metadata>
  <g
     inkscape:label="Layer 1"
     inkscape:groupmode="layer"
     id="layer1"
     transform="translate(0,-458.36216)">
    <rect
       style="opacity:1;fill:#cccccc;fill-opacity:1;stroke:none;stroke-width:3.0999999;stroke-miterlimit:4;stroke-dasharray:none;stroke-opacity:1"
       id="rect4571"
       width="376.50284"
       height="376.50284"
       x="48.673828"
       y="616.71521" />
    <g
       style="font-style:normal;font-weight:normal;font-size:220.78172302px;line-height:125%;font-family:sans-serif;letter-spacing:0px;word-spacing:0px;fill:#000000;fill-opacity:1;stroke:none;stroke-width:1px;stroke-linecap:butt;stroke-linejoin:miter;stroke-opacity:1"
       id="text5250"
       transform="matrix(4.5305454,-1.6581328,1.6585747,4.5293383,-8939.4602,4576.0687)">
      <path
         d="m 2022.8261,-135.23368 c -0.1472,-1.1775 1.4035,-3.0252 4.8855,-3.4813 5.5264,-0.7836 2.7354,-0.94884 8.9673,-0.97494 1.6191,0 6.191,1.27831 7.6629,2.01425 1.6191,0.58875 2.7966,1.32468 3.5325,2.20781 l 0.4416,1.98704 c 0.2943,1.1775 0.8831,3.09094 1.7662,5.74032 0.8831,2.50219 2.1342,5.81392 3.7533,9.93518 1.7663,3.97407 4.0477,8.68408 6.8442,14.13003 4.5629,-4.26845 9.1257,-8.61049 13.6885,-13.02612 4.71,-4.41563 9.42,-9.05205 14.13,-13.90925 1.0303,-1.03031 1.9135,-1.98703 2.6494,-2.87016 0.8831,-0.88313 1.8399,-1.61907 2.8702,-2.20782 1.0303,-0.58875 2.2078,-1.03031 3.5325,-1.32469 1.3247,-0.29437 3.0173,-0.44156 5.078,-0.44156 2.9437,0.14719 5.6667,0.58875 8.1689,1.32469 2.6494,0.58875 4.1213,1.1775 4.4156,1.76625 0.4416,1.03031 -0.5151,2.94376 -2.8701,5.74033 -3.2381,3.82688 -8.7577,9.19923 -16.5587,16.11706 -7.8009,6.77064 -16.7058,14.718783 -26.7146,23.844429 4.9254,10.725113 14.001,19.281614 19.096,29.841339 9.8332,16.832814 10.8851,49.3518574 -9.3484,20.800488 -7.2606,-9.807443 -9.2644,-11.594436 -12.5627,-15.836737 -4.5468,-5.848208 -9.4021,-12.737823 -14.7009,-20.097214 -5.5931,5.151573 -15.3805,16.422347 -18.4714,19.954855 -3.0909,3.385319 -5.8139,6.0347 -8.1689,7.948142 -3.0909,2.502193 -5.8875,3.826883 -8.3897,3.974071 -2.355,0.294375 -5.8139,-0.220782 -10.3768,-1.545472 -1.4719,-0.294376 -2.2814,-0.956721 -2.4286,-1.987036 -0.2943,-1.177503 -0.2943,-1.987036 0,-2.428599 0.736,-0.735939 1.3984,-1.471878 1.9871,-2.207817 0.5887,-0.883127 1.2511,-1.766254 1.987,-2.649381 3.6797,-4.268447 11.4915,-10.455452 16.3487,-15.165462 4.8572,-4.71001 15.5648,-12.56603 21.3051,-17.717603 -2.9437,-4.562823 -5.6667,-9.125645 -8.1689,-13.688467 -2.5022,-4.710006 -4.7836,-9.199226 -6.8442,-13.467676 -1.9135,-4.41564 -3.5325,-8.5369 -4.8572,-12.36378 -1.3247,-3.82689 -2.2078,-7.13861 -2.6494,-9.93518 z"
         style="font-style:normal;font-variant:normal;font-weight:bold;font-stretch:normal;font-family:'Advertising Script';-inkscape-font-specification:'Advertising Script Bold'"
         id="path5255"
         inkscape:connector-curvature="0"
         sodipodi:nodetypes="cccccccccccccsccccccccscccccccccscccscc" />
    </g>
  </g>
</svg>
