<?xml version="1.0" encoding="UTF-8" standalone="no"?>
<!-- Created with Inkscape (http://www.inkscape.org/) -->

<svg
   xmlns:dc="http://purl.org/dc/elements/1.1/"
   xmlns:cc="http://creativecommons.org/ns#"
   xmlns:rdf="http://www.w3.org/1999/02/22-rdf-syntax-ns#"
   xmlns:svg="http://www.w3.org/2000/svg"
   xmlns="http://www.w3.org/2000/svg"
   xmlns:sodipodi="http://sodipodi.sourceforge.net/DTD/sodipodi-0.dtd"
   xmlns:inkscape="http://www.inkscape.org/namespaces/inkscape"
   width="500"
   height="425.82599"
   viewBox="0 0 500.00001 425.826"
   id="svg5160"
   version="1.1"
   inkscape:version="0.91 r13725"
   sodipodi:docname="Sink or Swim_Logo.svg">
  <defs
     id="defs5162" />
  <sodipodi:namedview
     id="base"
     pagecolor="#ffffff"
     bordercolor="#666666"
     borderopacity="1.0"
     inkscape:pageopacity="0.0"
     inkscape:pageshadow="2"
     inkscape:zoom="0.35"
     inkscape:cx="-112.14286"
     inkscape:cy="177.14286"
     inkscape:document-units="px"
     inkscape:current-layer="layer1"
     showgrid="false"
     units="px"
     inkscape:window-width="1536"
     inkscape:window-height="801"
     inkscape:window-x="-8"
     inkscape:window-y="-8"
     inkscape:window-maximized="1" />
  <metadata
     id="metadata5165">
    <rdf:RDF>
      <cc:Work
         rdf:about="">
        <dc:format>image/svg+xml</dc:format>
        <dc:type
           rdf:resource="http://purl.org/dc/dcmitype/StillImage" />
        <dc:title></dc:title>
      </cc:Work>
    </rdf:RDF>
  </metadata>
  <g
     inkscape:label="Layer 1"
     inkscape:groupmode="layer"
     id="layer1"
     transform="translate(0,-626.53616)">
    <g
       id="g4871"
       transform="matrix(1.6755704,0,0,1.6755704,-154.14575,793.457)">
      <path
         d="m 129.76096,-13.696194 0,-5.066884 c 0,-9.616588 -7.75536,-16.131152 -18.71626,-16.131152 -11.064305,0 -18.923062,6.307728 -18.923062,16.131152 0,9.9268433 2.895336,12.2017829 9.720042,20.2673591 L 112.59577,12.56855 c 2.68853,3.102111 4.23959,5.997473 4.23959,9.823425 0,4.239624 -2.58511,6.617895 -5.79066,6.617895 -3.30895,0 -5.79066,-2.171434 -5.79066,-6.617895 l 0,-6.721314 -13.028992,0 0,7.548572 c 0,10.340516 8.375782,16.234571 18.819652,16.234571 10.34047,0 19.12987,-5.790637 19.12987,-16.234571 0,-8.58258 -3.20555,-12.51195 -8.37578,-18.4060043 L 108.8732,-9.9736609 c -2.99873,-3.4123661 -3.61916,-5.7906361 -3.61916,-8.8928351 0,-3.308947 2.48171,-5.687218 5.79066,-5.687218 3.10215,0 5.79066,2.791944 5.79066,7.85874 l 0,2.99878 12.9256,0 z"
         style="font-style:normal;font-variant:normal;font-weight:normal;font-stretch:normal;font-size:medium;line-height:125%;font-family:Langdon;-inkscape-font-specification:Langdon;letter-spacing:0px;word-spacing:0px;fill:#000000;fill-opacity:1;stroke:none;stroke-width:1px;stroke-linecap:butt;stroke-linejoin:miter;stroke-opacity:1"
         id="path4159-1"
         inkscape:connector-curvature="0" />
      <path
         sodipodi:nodetypes="ccccc"
         d="m 151.63105,-3.8430097 -12.92559,-6.4359313 0,48.69865 12.92559,0 z"
         style="font-style:normal;font-variant:normal;font-weight:normal;font-stretch:normal;font-size:medium;line-height:125%;font-family:Langdon;-inkscape-font-specification:Langdon;letter-spacing:0px;word-spacing:0px;fill:#000000;fill-opacity:1;stroke:none;stroke-width:1px;stroke-linecap:butt;stroke-linejoin:miter;stroke-opacity:1"
         id="path4161-7"
         inkscape:connector-curvature="0" />
      <path
         sodipodi:nodetypes="cccccccccccc"
         d="m 187.37838,-16.680051 0,22.8375424 -0.2068,0 -7.0599,-19.5319984 c -6.12125,3.4039006 -14.20688,5.1821709 -18.58448,5.6247312 l 0,46.1694848 12.92559,0 0,-41.46522 c 3.72549,13.384067 7.5547,21.420756 12.92559,41.46522 l 12.9256,-0.10272 0,-68.245834 c -2.7659,3.825079 -6.96065,9.038144 -12.9256,13.248794 z"
         style="font-style:normal;font-variant:normal;font-weight:normal;font-stretch:normal;font-size:medium;line-height:125%;font-family:Langdon;-inkscape-font-specification:Langdon;letter-spacing:0px;word-spacing:0px;fill:#000000;fill-opacity:1;stroke:none;stroke-width:1px;stroke-linecap:butt;stroke-linejoin:miter;stroke-opacity:1"
         id="path4163-2"
         inkscape:connector-curvature="0" />
      <path
         d="m 237.29216,38.419709 14.89028,0 -21.40478,-40.0176263 17.4754,-32.3656357 -12.20176,0 -12.71878,25.8511587 -0.20681,0 0,-25.8511587 -12.92559,0 0,72.383262 12.92559,0 0,-27.092003 0.31022,-0.723841 0.62042,0 13.23581,27.815844 z"
         style="font-style:normal;font-variant:normal;font-weight:normal;font-stretch:normal;font-size:medium;line-height:125%;font-family:Langdon;-inkscape-font-specification:Langdon;letter-spacing:0px;word-spacing:0px;fill:#000000;fill-opacity:1;stroke:none;stroke-width:1px;stroke-linecap:butt;stroke-linejoin:miter;stroke-opacity:1"
         id="path4165-3"
         inkscape:connector-curvature="0" />
      <path
         d="M 390.40183,41.015376 376.48881,9.5002135 c 6.3241,-3.1621547 11.06717,-10.22383205 11.06717,-21.1856425 0,-11.805128 -6.00788,-21.080392 -18.6561,-21.080392 l -22.02893,0 0,73.781197 13.06979,0 0,-29.723278 c 0.52703,0 2.42425,0 4.21608,0 l 12.5428,29.723278 13.70221,0 z m -30.46109,-63.241176 8.53753,0 c 5.16469,0 6.53491,4.63785 6.53491,10.540371 0,10.75078485 -2.31883,11.80495281 -10.85636,11.80495281 l -4.21608,0 0,-22.34532381 z"
         style="font-style:normal;font-variant:normal;font-weight:normal;font-stretch:normal;font-size:medium;line-height:125%;font-family:Langdon;-inkscape-font-specification:Langdon;letter-spacing:0px;word-spacing:0px;fill:#000000;fill-opacity:1;stroke:none;stroke-width:1px;stroke-linecap:butt;stroke-linejoin:miter;stroke-opacity:1"
         id="path4169-5"
         inkscape:connector-curvature="0" />
      <path
         style="fill:#000000;fill-opacity:1;fill-rule:nonzero;stroke:none"
         d="m 302.62423,40.706517 c -1.23161,-0.21408 -2.57029,-0.72288 -3.77511,-1.472204 -0.93709,-0.562211 -1.74031,-1.177921 -3.74833,-2.838024 -2.57029,-2.115056 -2.73094,-2.249019 -4.17672,-2.918314 -1.36547,-0.615972 -2.83804,-1.419056 -3.96253,-2.168729 l -0.74967,-0.481746 4.17671,-4.176788 4.17673,-4.176788 0.72289,0.374749 c 4.95316,2.436569 10.78985,2.784526 16.01074,0.937048 0.88354,-0.321164 2.30255,-0.910168 2.73094,-1.178008 l 0.26774,-0.134575 4.14993,4.149908 c 2.30257,2.302606 4.14995,4.203669 4.14995,4.230374 -0.0802,0.107258 -1.79384,1.151215 -2.78448,1.686721 -0.56224,0.321251 -1.39225,0.749586 -1.87417,0.937048 -0.82998,0.374924 -0.9103,0.455215 -2.67736,1.954474 -1.01743,0.856844 -2.14193,1.793892 -2.51675,2.088351 -2.03483,1.579724 -4.06963,2.623594 -6.02412,3.078809 -0.85676,0.214167 -3.21286,0.267665 -4.09639,0.107258 z m 3.31996,-1.472204 c 1.3119,-0.21408 2.91834,-0.883637 4.2838,-1.767012 0.64257,-0.42851 2.08835,-1.526227 2.59707,-1.954561 0.26774,-0.240961 0.26774,-0.267666 0.10717,-0.187375 -0.45517,0.134487 -2.62385,0.588917 -3.74835,0.749673 -1.8474,0.294546 -3.3735,0.374837 -5.5154,0.321251 -2.43643,-0.05324 -4.47123,-0.294545 -6.63991,-0.803171 -0.40161,-0.107346 -0.74967,-0.187288 -0.74967,-0.160757 0,0 0.4016,0.321251 0.88353,0.722881 2.30255,1.874183 3.77511,2.704234 5.54219,3.052278 0.85675,0.160669 2.35609,0.187375 3.23963,0.02705 z M 277.24298,21.61708 c -0.74966,-1.151128 -1.52609,-2.596889 -2.16867,-3.989327 -0.66935,-1.418881 -0.77645,-1.606342 -2.91834,-4.176701 -2.65063,-3.18598 -3.37352,-4.3104023 -3.96255,-6.2114654 -0.37482,-1.1245098 -0.48193,-1.9812667 -0.42837,-3.4804386 0.0535,-1.8473903 0.32129,-2.89169643 1.17806,-4.65870849 0.82999,-1.65992831 1.57964,-2.70405991 4.20349,-5.78304371 1.49932,-1.7938921 1.55286,-1.8741831 1.92771,-2.70406 0.21418,-0.4553894 0.64258,-1.3119718 0.93709,-1.8742698 0.53547,-0.990634 1.57965,-2.704235 1.68674,-2.757559 0.0535,-0.02705 1.9545,1.847478 4.23027,4.1231158 l 4.17636,4.1766136 -0.16066,0.2410474 c -0.0802,0.1344001 -0.32127,0.6156222 -0.50867,1.0710116 -1.92774,4.31040282 -2.32897,8.9689368 -1.23161,13.5204743 0.37482,1.5260523 1.17803,3.6144023 1.71354,4.5515373 l 0.1874,0.321251 -4.17636,4.176701 -4.20349,4.203581 -0.48194,-0.74976 z m -4.33736,-10.41496 c -0.82999,-3.668075 -0.99063,-7.7376049 -0.45515,-11.59296743 0.13393,-1.07083707 0.53549,-3.10577657 0.74967,-3.80186427 l 0.10718,-0.3747494 -0.24096,0.2944584 c -1.04419,1.1780953 -2.16868,2.8380237 -2.7577,3.98941352 -0.74967,1.49908458 -1.09773,2.91822738 -1.09773,4.47089748 0,2.4633616 0.82999,4.3107519 3.15932,7.1753937 0.42837,0.508713 0.74965,0.91043 0.77643,0.91043 0,0 -0.10718,-0.482008 -0.24097,-1.071012 z m 54.02924,6.961139 -4.17673,-4.176701 0.16066,-0.24096 c 0.0802,-0.133091 0.29451,-0.615709 0.5087,-1.070924 2.43642,-5.4885856 2.43642,-11.5929677 0,-17.0813786 -0.21419,-0.4553894 -0.4284,-0.9373097 -0.5087,-1.0710116 l -0.16066,-0.2410474 4.17673,-4.1766136 c 2.27578,-2.2756378 4.17671,-4.1499958 4.2035,-4.1231158 0.10717,0.05236 1.17769,1.766925 1.71316,2.757559 0.29452,0.562298 0.7229,1.4188804 0.93709,1.8742698 0.37483,0.8298769 0.42839,0.9101679 1.92771,2.70406 2.59705,3.0522783 3.29318,4.0161189 4.14995,5.70284003 0.88353,1.74030658 1.17803,2.89152187 1.23158,4.73891217 0.0535,1.4991719 -0.0535,2.3559288 -0.42836,3.5071441 -0.58905,1.8743576 -1.31194,2.9987799 -3.96254,6.1847599 -2.11513,2.543478 -2.27577,2.784439 -2.8648,4.043087 -0.26773,0.615709 -0.72289,1.55267 -1.01741,2.088263 -0.53549,0.937048 -1.5793,2.650562 -1.68638,2.70406 -0.0269,0.02705 -1.92772,-1.847478 -4.2035,-4.123203 z m 9.53112,-6.773677 c 2.38288,-2.9184018 3.18609,-4.7389121 3.18609,-7.2022737 0,-2.4629253 -0.85677,-4.6048612 -2.94512,-7.3089211 -0.34805,-0.4820076 -0.74966,-0.990808 -0.91031,-1.1513899 l -0.24097,-0.2944584 0.10718,0.3747494 c 0.37484,1.312059 0.82999,3.98932621 0.99062,5.8635092 0.0802,1.231419 0.0802,3.6946061 -0.0269,4.9530796 -0.10718,1.3653827 -0.37485,3.293064 -0.66933,4.5782429 -0.13394,0.589004 -0.24099,1.071012 -0.24099,1.071012 0,0 0.34807,-0.401717 0.74968,-0.88355 z m -46.0774,-29.772325 -4.17671,-4.176526 0.74967,-0.482008 c 1.12449,-0.749673 2.59706,-1.552932 3.96253,-2.195434 1.41902,-0.642589 1.65996,-0.803171 4.2838,-2.998605 3.07899,-2.54374 4.23028,-3.266446 6.10444,-3.882243 1.1245,-0.348044 1.98126,-0.45504 3.4806,-0.428335 1.87417,0.08116 3.02545,0.37475 4.73897,1.231419 1.68674,0.856844 2.67737,1.579725 5.72961,4.150083 1.76706,1.499259 1.84738,1.552932 2.67736,1.927681 0.48192,0.213993 1.31193,0.642502 1.87417,0.937048 0.99064,0.562211 2.70416,1.606343 2.78448,1.713514 0,0.02705 -1.84738,1.927681 -4.14995,4.230286 l -4.14993,4.149734 -0.26774,-0.133091 c -0.56225,-0.347957 -2.00805,-0.937048 -3.10576,-1.311797 -4.36414,-1.445936 -9.07632,-1.392263 -13.38692,0.133091 -0.96386,0.348131 -2.7577,1.124509 -2.83802,1.23168 -0.0267,0.05324 -0.0535,0.08029 -0.0802,0.08029 -0.0269,0 -1.92772,-1.874183 -4.23028,-4.176788 z m 22.43648,-8.862027 c -0.50872,-0.455041 -1.9545,-1.552932 -2.59707,-1.954387 -3.31995,-2.168729 -6.747,-2.490067 -9.85278,-0.93731 -0.96384,0.482008 -1.92769,1.17827 -3.93575,2.838111 -0.18741,0.160669 -0.16062,0.160669 0.69612,-0.05236 2.249,-0.508714 4.06964,-0.722881 6.5596,-0.776379 2.08837,-0.05236 3.4806,0.02705 5.27444,0.267665 1.17805,0.160582 2.83803,0.508714 3.61448,0.722968 0.24096,0.08029 0.48192,0.1344 0.5087,0.1344 0.0269,0.02706 -0.10717,-0.107258 -0.26774,-0.24096 z"
         id="path4218-9"
         inkscape:connector-curvature="0" />
      <path
         style="fill:#000000;fill-opacity:1;fill-rule:nonzero;stroke:none"
         d="m 178.35114,-18.408052 c -8.43467,3.859552 -18.16849,5.663044 -26.97372,4.798083 -0.83216,-0.08029 -1.53174,-0.125847 -1.53174,-0.125847 0,0 0.0878,0.735273 0.0911,1.518634 l 0.13975,1.602939 -8.53095,-4.278112 c -4.66408,-2.24614 -8.48252,-4.194243 -8.53119,-4.278461 -0.0483,-0.08378 0.12,-0.180655 0.28863,-0.278051 0.16823,-0.09714 3.55701,-2.39302 7.62137,-5.073603 4.06433,-2.680671 7.58587,-4.940775 7.67006,-4.989385 l 0.25255,-0.145833 0.18213,3.037267 0.2311,3.122009 1.35023,0.0087 c 5.43714,-0.108568 11.30467,-1.026765 16.46919,-2.773966 1.239,-0.381294 3.79171,-1.403259 4.04426,-1.549092 0.0843,-0.04887 -1.66537,-3.079245 -8.46956,-14.864475 l -8.60258,-14.899995 -5.38761,3.110489 -5.38748,3.11049 -5.69678,-1.313194 -5.56374,-1.27715 9.04322,-5.332454 9.00741,-5.200411 -3.88831,-6.734753 -3.88808,-6.734317 -0.30076,0.06196 c -0.56559,-0.0087 -2.34143,-0.556102 -3.15134,-0.986793 -1.02665,-0.417426 -2.4776,-1.375245 -3.31337,-2.239594 -0.5572,-0.576612 -0.75146,-0.913135 -1.57785,-2.344409 -0.82616,-1.430925 -0.97194,-1.683492 -1.15683,-2.58694 -0.76205,-3.264002 -0.24487,-6.256324 1.68439,-8.941446 0.95791,-1.451346 1.49874,-1.875492 3.38622,-3.077674 1.43098,-0.826125 1.81591,-0.936961 2.58581,-1.158808 3.76918,-1.053466 7.53564,0.02705 10.4413,2.726576 0.68995,0.611869 0.83576,0.864349 1.66192,2.295361 0.82638,1.431274 1.02064,1.767798 1.24138,2.538591 0.61269,2.227638 0.49029,4.542985 -0.29595,6.680557 l -0.29768,0.845237 3.88833,6.734841 3.8394,6.650011 9.00742,-5.20041 9.13966,-5.165415 -1.67565,5.457255 -1.71134,5.589734 -5.38749,3.11049 -5.38761,3.110576 8.60255,14.899995 c 6.80444,11.785666 8.55412,14.816214 8.63843,14.767516 0.25254,-0.145833 2.41446,-1.844685 3.24399,-2.546359 4.04676,-3.68326 8.14786,-8.632936 10.79215,-13.190234 l 0.63436,-1.03968 -2.5879,-1.760641 -2.62367,-1.628249 0.33687,-0.194443 c 0.16822,-0.09714 3.88459,-2.020016 8.24036,-4.195989 4.35364,-2.179463 8.03619,-3.966286 8.20454,-4.06342 0.16823,-0.09722 0.25254,-0.145833 0.30077,-0.06196 0.0482,0.08378 -0.17356,4.365123 -0.56057,9.527046 l -0.56022,9.527483 -1.31831,-0.922474 c -0.67716,-0.394996 -1.26963,-0.838255 -1.26963,-0.838255 0,0 -0.30992,0.629673 -0.65692,1.38947 -3.27175,7.164136 -8.90737,14.121784 -15.34667,19.298893 -2.70341,2.121776 -7.53713,5.024992 -10.63041,6.471538 z"
         id="path4220-2"
         inkscape:connector-curvature="0" />
      <path
         inkscape:connector-curvature="0"
         id="path4498-9"
         d="m 384.21786,93.069228 c -3.07943,-1.122241 -7.61459,-2.852424 -10.07814,-3.84489 -4.65687,-1.876103 -11.74742,-5.361254 -12.32607,-6.058477 -0.26129,-0.314793 -0.89293,-0.165381 -2.92694,0.692423 -1.42656,0.601658 -2.62466,1.054255 -2.66243,1.005644 -0.0378,-0.04887 0.91139,-5.127363 2.10925,-11.286204 1.19787,-6.15884 2.92327,-15.049231 3.83422,-19.756376 l 1.65628,-8.558406 13.23635,0 13.23636,0 0,24.955391 c 0,13.725478 -0.10798,24.940991 -0.23996,24.923362 -0.13197,-0.01745 -2.75948,-0.950314 -5.83892,-2.072467 z m -64.94801,-1.895303 c -1.14379,-0.231186 -3.23141,-0.840437 -4.63915,-1.35395 l -2.55952,-0.933732 -0.0822,-21.81165 -0.0822,-21.811651 13.35975,0 13.35976,0 3.96868,20.875039 c 2.18277,11.481259 4.0258,21.034138 4.09561,21.228494 0.0787,0.219142 -0.82107,0.502953 -2.36897,0.747317 -3.38895,0.534895 -11.00872,1.921136 -11.67158,2.123434 -0.39657,0.121047 -0.57252,-0.06982 -0.67193,-0.730299 l -0.13467,-0.894197 -0.0479,0.985397 c -0.0476,0.977892 -0.0694,0.989587 -2.84742,1.521863 -3.264,0.625484 -6.74754,0.644073 -9.67822,0.05149 z M 97.28995,87.855726 c -1.836097,-2.62726 -3.455077,-6.018593 -4.241222,-8.884107 -0.988015,-3.601486 -1.252146,-12.744358 -0.469763,-16.261015 2.02828,-9.116776 9.653745,-15.931559 20.219245,-18.069742 4.088,-0.827346 11.23544,-0.900743 15.16275,-0.155782 9.688,1.83779 16.91059,7.469678 19.82673,15.460112 1.14072,3.125675 1.5935,6.565008 1.5935,12.104386 l 0,4.247654 -9.91817,0 -9.91817,0 -0.003,-1.839711 c -0.008,-5.606229 -1.06047,-9.59573 -3.16322,-11.990582 -3.68967,-4.202359 -10.70714,-3.112846 -13.28625,2.062779 -0.68262,1.369834 -0.82407,2.098998 -0.82093,4.231683 0.005,3.568148 0.77651,6.252397 2.67819,9.321344 l 0.80903,1.305514 -2.24022,0.874997 c -3.21821,1.25699 -7.48328,3.774024 -11.48994,6.780746 l -3.480773,2.612075 -1.258177,-1.800351 z m 83.95067,0.711273 c -3.97327,-1.219549 -5.94421,-3.977195 -5.94421,-8.316747 l 0,-1.704263 -1.91636,-0.967331 c -2.38136,-1.202096 -5.30895,-1.910401 -7.92183,-1.916598 -1.09979,0 -1.99963,-0.06458 -1.99963,-0.137542 0,-0.07331 -1.36774,-6.855801 -3.03944,-15.072795 -1.67169,-8.216907 -3.03944,-14.995908 -3.03944,-15.06433 0,-0.06807 4.38845,-0.124451 9.75211,-0.124451 l 9.7521,0 0.16606,0.719826 c 0.0913,0.395957 1.60542,10.006174 3.36464,21.356087 1.75924,11.349913 3.25749,20.88813 3.32945,21.196115 0.15975,0.683608 -0.35912,0.690241 -2.50345,0.03229 z m 15.69183,-7.070753 c 0.57783,-3.651319 2.09839,-13.29758 3.37902,-21.436029 l 2.32842,-14.797275 9.67786,0 9.67786,0 0.16619,0.719826 c 0.14299,0.619375 5.92487,37.540475 5.92487,37.834148 0,0.317586 -2.57014,-0.650182 -3.61332,-1.360582 -1.19658,-0.814866 -1.2498,-0.821063 -3.75645,-0.437324 -1.39847,0.21408 -5.67538,1.256466 -9.50425,2.316394 -6.54455,1.811783 -14.4174,3.799595 -15.04806,3.799595 -0.15551,0 0.19003,-2.987434 0.76786,-6.638753 z m 82.42476,3.050707 -1.99963,-0.307113 0,-19.488449 0,-19.488449 9.91817,0 9.91817,0 0,19.009933 0,19.010019 -1.67969,0.366633 c -5.37303,1.172685 -11.97656,1.539492 -16.15702,0.897426 z M 242.23972,80.37706 c 0.0878,-0.572248 1.36641,-8.706944 2.84144,-18.077074 l 2.68188,-17.036695 9.19831,-1.74e-4 c 8.55166,-1.75e-4 9.19745,0.03927 9.18621,0.55968 -0.007,0.307986 -1.33841,7.020834 -2.95946,14.917537 l -2.94737,14.357595 -2.87946,0.871855 c -1.58371,0.479564 -5.11106,1.700597 -7.83856,2.713398 -2.72749,1.012888 -5.51785,2.042445 -6.20081,2.287943 l -1.24174,0.446401 0.15956,-1.040466 z"
         style="fill:#000000" />
      <path
         inkscape:connector-curvature="0"
         id="path4558-5"
         d="m 91.999037,125.03847 0,-29.479437 1.812743,-1.590808 c 0.997004,-0.87491 2.495129,-2.153718 3.329195,-2.841689 l 1.516452,-1.250968 0.795404,0.941149 c 5.516599,6.527306 9.067819,10.423953 15.964899,17.517743 8.13147,8.36335 9.94569,10.4476 11.57892,13.3022 2.29937,4.01883 3.15517,9.49965 2.06347,13.21642 -1.28003,4.35814 -4.8583,6.86427 -9.2318,6.46552 -4.00006,-0.36463 -6.60594,-2.6133 -7.64309,-6.59521 -0.24183,-0.92832 -0.30432,-2.44643 -0.30432,-7.39026 l 0,-6.22193 -9.86322,0 -9.863133,0 0.09452,7.30769 c 0.08204,6.37964 0.145483,7.53496 0.495709,9.09732 1.86755,8.33062 7.340944,13.69676 16.835794,16.50581 l 1.60433,0.47468 -9.59442,0.0105 -9.594504,0.0105 0,-29.47935 z m 38.873483,29.25672 c 0.4375,-0.10045 1.64544,-0.46264 2.68451,-0.80474 8.19203,-2.69796 13.47055,-7.99498 15.3621,-15.41604 0.39605,-1.55363 0.4464,-2.24492 0.4464,-6.12594 0,-3.42153 -0.0803,-4.80795 -0.37021,-6.36324 -1.07293,-5.76384 -3.44745,-10.49577 -8.13225,-16.2062 -1.03183,-1.25769 -6.29394,-7.34252 -11.69351,-13.521699 -14.68198,-16.802018 -13.81222,-15.761202 -13.32219,-15.942468 0.84952,-0.314269 2.92835,-0.405208 4.03078,-0.176378 1.35264,0.280843 2.48824,1.06272 3.33871,2.298765 1.71447,2.491987 5.1333,3.532715 9.24647,2.814634 2.51459,-0.438982 4.8007,-1.131579 9.04765,-2.740976 12.34814,-4.679567 15.51038,-5.606927 20.58093,-6.035786 l 1.59072,-0.134574 7.90814,39.040082 c 4.34941,21.47207 7.9063,39.15197 7.90421,39.28864 0,0.19767 -5.06898,0.24445 -24.71085,0.22865 -15.5048,-0.0122 -24.41073,-0.0881 -23.91161,-0.20273 z m 68.10589,0.041 c 0,-0.3511 12.7276,-63.517747 12.81618,-63.606329 0.0489,-0.04887 0.13955,0.122182 0.20047,0.381207 0.31278,1.328816 12.63491,62.898542 12.63491,63.132342 0,0.23041 -2.05606,0.2743 -12.82578,0.2743 -7.60495,0 -12.82578,-0.0742 -12.82578,-0.18152 z m 45.13879,-0.0271 c 0,-0.62478 15.77447,-78.469141 15.93479,-78.635483 0.10656,-0.110574 1.23674,-0.198894 2.54618,-0.198894 2.73112,0 2.68425,-0.02444 4.11474,2.127448 1.99733,3.004366 5.12658,5.321808 8.81953,6.531321 l 1.99147,0.652277 0,34.865831 0,34.86573 -16.7034,0 c -11.5077,0 -16.70331,-0.0646 -16.70331,-0.20823 z m 52.69505,-35.15531 0,-35.363542 1.1232,-0.251345 c 0.6178,-0.138241 1.60774,-0.418037 2.1998,-0.621732 l 1.07659,-0.370385 1.23037,0.964626 c 1.87279,1.468364 5.21857,3.589704 7.5676,4.797995 l 2.10895,1.084801 0,32.561562 0,32.56156 -7.65566,0 -7.65574,0 0,-35.36354 z m 34.64895,3.59739 0.0506,-31.766163 0.49527,0 0.49519,0 5.60675,30.225093 c 3.0837,16.62381 5.73487,30.91857 5.89152,31.76616 l 0.28486,1.54106 -6.43706,0 -6.43716,0 0.0506,-31.76615 z m 26.49279,31.5176 c 0.0454,-0.13667 2.87223,-14.96833 6.28207,-32.95926 3.40975,-17.99085 6.27797,-32.79572 6.37388,-32.899662 0.0999,-0.108218 0.17428,13.959542 0.17428,32.959352 l 0,33.14812 -6.45635,0 c -5.07648,0 -6.43873,-0.0532 -6.37388,-0.24855 z m -171.48103,-45.3376 c -1.56585,-10.089169 -2.88925,-18.533684 -2.94101,-18.765568 -0.0927,-0.415767 -0.0384,-0.423273 3.84839,-0.535942 2.57075,-0.07418 4.73564,-0.252916 6.22259,-0.512815 1.25411,-0.219229 2.317,-0.361745 2.36204,-0.3168 0.0454,0.04538 -1.27227,8.653097 -2.92705,19.129235 -1.65477,10.47605 -3.00846,19.11457 -3.0082,19.19661 1.7e-4,0.082 -0.15936,0.14915 -0.35476,0.14915 -0.31785,0 -0.6542,-1.92707 -3.202,-18.34387 z m 47.90058,18.09523 c -8e-5,-0.13667 -1.47656,-9.71111 -3.28102,-21.27641 -1.80454,-11.565389 -3.28075,-21.095228 -3.28049,-21.177526 1.7e-4,-0.08204 1.09632,-0.1584 2.43587,-0.169222 2.71025,-0.02182 5.2368,-0.50976 9.64041,-1.861441 2.33725,-0.717382 2.42889,-0.730211 2.33752,-0.327535 -0.13493,0.594415 -7.05688,44.580944 -7.05688,44.843814 0,0.1193 -0.17891,0.21696 -0.3977,0.21696 -0.21871,0 -0.39771,-0.11189 -0.39771,-0.24864 z m 116.43831,-15.69252 c -0.15936,-0.48166 -4.28719,-22.41174 -4.28711,-22.776017 9e-5,-0.290356 0.39387,-0.447098 2.11375,-0.841571 1.16256,-0.266619 3.3772,-0.907201 4.9214,-1.423507 1.54429,-0.516393 2.81821,-0.924655 2.83087,-0.9072 0.0122,0.01745 -1.10924,5.886374 -2.49321,13.042219 -2.32608,12.027416 -2.76672,13.870346 -3.0857,12.906076 z M 175.52991,83.412232 c 0.01,-0.231709 0.0567,-0.278836 0.12018,-0.120174 0.0576,0.143564 0.0506,0.315055 -0.0157,0.38112 -0.0663,0.06633 -0.11311,-0.05149 -0.10447,-0.260946 z m -0.1419,-2.36963 c 6.1e-4,-1.093703 0.034,-1.515754 0.0742,-0.937921 0.0402,0.577833 0.0402,1.472728 0,1.988511 -0.041,0.515869 -0.0733,0.04276 -0.0733,-1.05059 z"
         style="fill:#0000b7;fill-opacity:1" />
    </g>
  </g>
</svg>
